<svg width="39" height="39" viewBox="0 0 39 39" fill="none" xmlns="http://www.w3.org/2000/svg">
<g clip-path="url(#clip0_33_2794)">
<path fill-rule="evenodd" clip-rule="evenodd" d="M37.8266 7.6819C37.4303 7.48846 37.2588 7.85818 37.0279 8.04694C36.9483 8.10778 36.8812 8.18734 36.8142 8.2591C36.2338 8.87842 35.5568 9.28402 34.6723 9.23566C33.379 9.1639 32.2745 9.5695 31.298 10.5585C31.0905 9.33862 30.401 8.61166 29.3527 8.14366C28.8035 7.9003 28.2482 7.6585 27.8629 7.12966C27.5945 6.7537 27.5212 6.33406 27.3871 5.92222C27.3013 5.67262 27.2155 5.41834 26.93 5.37622C26.618 5.32786 26.4963 5.58838 26.3746 5.80678C25.8863 6.6991 25.6976 7.6819 25.7163 8.67718C25.7584 10.9173 26.7038 12.702 28.5836 13.9703C28.7973 14.1153 28.8519 14.262 28.7848 14.4741C28.6569 14.9109 28.504 15.3353 28.3699 15.7736C28.2841 16.0529 28.1561 16.1121 27.8566 15.992C26.8446 15.5571 25.9253 14.9322 25.1485 14.1512C23.8115 12.8595 22.6041 11.4337 21.0971 10.3167C20.748 10.0587 20.3895 9.81366 20.0223 9.58198C18.4857 8.08906 20.2251 6.8629 20.6276 6.71782C21.0488 6.56494 20.7727 6.0439 19.4123 6.05014C18.052 6.05638 16.8071 6.51034 15.2206 7.11718C14.9849 7.20752 14.7423 7.27899 14.4952 7.3309C13.0126 7.05156 11.4964 6.99791 9.99775 7.17178C7.05715 7.49938 4.70935 8.8909 2.98243 11.2637C0.907627 14.1153 0.419347 17.357 1.01683 20.736C1.64551 24.299 3.46447 27.249 6.25843 29.5547C9.15691 31.9461 12.4937 33.1177 16.3017 32.8931C18.6136 32.7605 21.1892 32.45 24.0923 29.9915C24.8255 30.3565 25.5931 30.5016 26.8692 30.6108C27.8519 30.7028 28.7973 30.564 29.5289 30.4111C30.6756 30.1677 30.596 29.1054 30.1826 28.9119C26.8208 27.3457 27.5587 27.9837 26.8863 27.4674C28.5961 25.4456 31.1701 23.3459 32.1778 16.5427C32.2558 16.0014 32.1888 15.6613 32.1778 15.2245C32.1716 14.9593 32.2324 14.8548 32.5366 14.8251C33.3806 14.7376 34.1994 14.4859 34.9468 14.0841C37.1246 12.8939 38.0044 10.9407 38.2119 8.59762C38.2431 8.23882 38.2057 7.87066 37.8266 7.6819ZM18.8461 28.77C15.5872 26.2085 14.0069 25.3645 13.3549 25.4004C12.7433 25.4378 12.8541 26.1351 12.9883 26.5907C13.1287 27.0399 13.3112 27.3488 13.567 27.7435C13.7449 28.004 13.8665 28.3925 13.3907 28.6842C12.3409 29.3331 10.5172 28.4658 10.4314 28.4237C8.30827 27.1725 6.53143 25.5221 5.28187 23.2647C4.07443 21.0917 3.37243 18.761 3.25699 16.2728C3.22579 15.6707 3.40207 15.4585 4.00111 15.3493C4.78752 15.1988 5.59328 15.1783 6.38635 15.2885C9.71227 15.7752 12.5421 17.2619 14.9164 19.6159C16.2705 20.9575 17.2954 22.5596 18.3515 24.1259C19.4747 25.7888 20.6822 27.3738 22.2203 28.6717C22.7632 29.1272 23.1953 29.4735 23.6103 29.7278C22.3592 29.8682 20.2719 29.8994 18.8461 28.77ZM20.4061 18.7236C20.4058 18.6461 20.4244 18.5697 20.4603 18.501C20.4961 18.4323 20.5482 18.3734 20.6119 18.3293C20.6756 18.2852 20.7491 18.2573 20.8261 18.248C20.903 18.2387 20.9811 18.2483 21.0535 18.2759C21.1458 18.309 21.2254 18.37 21.2813 18.4506C21.3373 18.5311 21.3667 18.6271 21.3655 18.7251C21.3657 18.7885 21.3533 18.8512 21.329 18.9098C21.3047 18.9683 21.269 19.0213 21.224 19.0659C21.179 19.1105 21.1256 19.1457 21.0668 19.1694C21.0081 19.1931 20.9452 19.2049 20.8819 19.2041C20.819 19.2043 20.7567 19.1919 20.6987 19.1678C20.6406 19.1437 20.588 19.1082 20.5438 19.0634C20.4997 19.0187 20.4649 18.9656 20.4415 18.9072C20.4181 18.8489 20.405 18.7864 20.4061 18.7236ZM25.2577 21.2133C24.9457 21.3397 24.6352 21.4489 24.3373 21.4629C23.889 21.4786 23.4491 21.3386 23.0924 21.0667C22.6649 20.7079 22.3592 20.5082 22.2313 19.8842C22.1872 19.5793 22.1956 19.269 22.2562 18.9669C22.3654 18.4568 22.2437 18.1292 21.8834 17.8328C21.5917 17.5895 21.2188 17.5224 20.8101 17.5224C20.6702 17.5143 20.5342 17.4725 20.4139 17.4007C20.2423 17.3165 20.1019 17.1043 20.236 16.8422C20.2797 16.758 20.4856 16.5521 20.5355 16.5146C21.0909 16.1995 21.7321 16.3025 22.3233 16.5396C22.8724 16.7642 23.2874 17.1761 23.8849 17.7595C24.4948 18.4631 24.6056 18.6581 24.9535 19.1853C25.228 19.5987 25.4776 20.0231 25.6477 20.5082C25.7522 20.8124 25.618 21.0605 25.2577 21.2133Z" fill="#306FC7"/>
</g>
<defs>
<clipPath id="clip0_33_2794">
<rect width="37.44" height="37.44" fill="white" transform="translate(0.779785 0.690002)"/>
</clipPath>
</defs>
</svg>
